# AST/ASF file generated using VICON BodyLanguage
# -----------------------------------------------
:version 1.10
:name VICON
:units
  mass 1.0
  length 0.45
  angle deg
:documentation
   .ast/.asf automatically generated from VICON data using
   VICON BodyBuilder and BodyLanguage model FoxedUp or BRILLIANT.MOD
:root
   order TX TY TZ RX RY RZ
   axis XYZ
   position 0 0 0  
   orientation 0 0 0 
:bonedata
  begin
     id 1 
     name lhipjoint
     direction 0.62366 -0.717238 0.310833 
     length 2.53602 
     axis 0 0 0  XYZ
  end
  begin
     id 2 
     name lfemur
     direction 0.34202 -0.939693 0  
     length 7.40817  
     axis 0 0 20  XYZ
    dof rx ry rz
    limits (-160.0 20.0)
           (-70.0 70.0)
           (-60.0 70.0)
  end
  begin
     id 3 
     name ltibia
     direction 0.34202 -0.939693 0   
     length 7.7045   
     axis 0 0 20   XYZ
    dof rx
    limits (-10.0 170.0)
  end
  begin
     id 4 
     name lfoot
     direction 0.0673888 -0.185149 0.980397   
     length 2.09456   
     axis -90 7.62852e-016 20   XYZ
    dof rx rz
    limits (-45.0 90.0)
           (-70.0 20.0)
  end
  begin
     id 5 
     name ltoes
     direction 1.53575e-011 -4.21994e-011 1   
     length 1.05543   
     axis -90 7.62852e-016 20   XYZ
    dof rx
    limits (-90.0 20.0)
  end
  begin
     id 6 
     name rhipjoint
     direction -0.489018 -0.800347 0.346851   
     length 2.27268  
     axis 0 0 0  XYZ 
  end
  begin
     id 7 
     name rfemur
     direction -0.34202 -0.939693 0   
     length 7.55487   
     axis 0 0 -20   XYZ
    dof rx ry rz
    limits (-160.0 20.0)
           (-70.0 70.0)
           (-70.0 60.0)
  end
  begin
     id 8 
     name rtibia
     direction -0.34202 -0.939693 0   
     length 7.78969   
     axis 0 0 -20   XYZ
    dof rx
    limits (-10.0 170.0)
 end
 begin
     id 9 
     name rfoot
     direction -0.0859318 -0.236096 0.967923   
     length 2.19143  
     axis -90 -7.62852e-016 -20   XYZ
    dof rx rz
    limits (-45.0 90.0)
           (-20.0 70.0)
  end
  begin
     id 10 
     name rtoes
     direction -1.53538e-011 -4.21989e-011 1   
     length 1.09845   
     axis -90 -7.62852e-016 -20   XYZ
    dof rx
    limits (-90.0 20.0)
  end
  begin
     id 11 
     name lowerback
     direction -0.00762546 0.998978 -0.0445553   
     length 1.98161   
     axis 0 0 0   XYZ
    dof rx ry rz
    limits (-20.0 45.0)
           (-30.0 30.0)
           (-30.0 30.0)
  end
  begin
     id 12 
     name upperback
     direction 0.0422361 0.998867 -0.0219156   
     length 1.97558   
     axis 0 0 0   XYZ
    dof rx ry rz
    limits (-20.0 45.0)
           (-30.0 30.0)
           (-30.0 30.0)
  end
  begin
     id 13 
     name thorax
     direction 0.0442465 0.999021 7.47603e-005   
     length 1.97799   
     axis 0 0 0   XYZ
    dof rx ry rz
    limits (-20.0 45.0)
           (-30.0 30.0)
           (-30.0 30.0)
  end
  begin
     id 14 
     name lowerneck
     direction 0.00312169 0.984641 0.174564   
     length 1.78995   
     axis 0 0 0   XYZ
    dof rx ry rz
    limits (-20.0 45.0)
           (-30.0 30.0)
           (-30.0 30.0)
  end
  begin
     id 15 
     name upperneck
     direction -0.0383028 0.985255 -0.166749   
     length 1.83053   
     axis 0 0 0   XYZ
    dof rx ry rz
    limits (-20.0 45.0)
           (-30.0 30.0)
           (-30.0 30.0)
  end
  begin
     id 16
     name head
     direction -0.0129546 0.997059 -0.0755386  
     length 1.84088  
     axis 0 0 0   XYZ
    dof rx ry rz
    limits (-20.0 45.0)
           (-30.0 30.0)
           (-30.0 30.0)
  end
  begin
     id 17 
     name lclavicle
     direction 0.912857 0.370519 -0.171488  
     length 3.51279  
     axis 0 0 0   XYZ
    dof ry rz
    limits (-20.0 10.0)
           (0.0 20.0)
  end
  begin
     id 18 
     name lhumerus
     direction 1 -4.48962e-011 3.64361e-027   
     length 4.95663   
     axis 180 -30 -90   XYZ
    dof rx ry rz
    limits (-60.0 90.0)
           (-90.0 90.0)
           (-90.0 90.0)
  end
  begin
     id 19
     name lradius
     direction 1 -4.48974e-011 5.97202e-027   
     length 3.38177   
     axis 180 -30 -90   XYZ
    dof rx
    limits (-10.0 170.0)
  end
  begin
     id 20
     name lwrist
     direction 1 -4.4896e-011 9.83288e-027   
     length 1.69088   
     axis -9.31221e-015 90 90   XYZ
    dof ry
    limits (-180.0 0.0)
 end
  begin
     id 21 
     name lhand
     direction 1 -4.4902e-011 1.96551e-026   
     length 0.662909   
     axis -1.25475e-014 90 90   XYZ
    dof rx rz
    limits (-90.0 90.0)
           (-45.0 45.0)
  end
  begin
     id 22 
     name lfingers
     direction 1 -4.48971e-011 3.93277e-026   
     length 0.534454   
     axis -2.50945e-014 90 90   XYZ
    dof rx
    limits (0.0 90.0)
  end
  begin
     id 23
     name lthumb
     direction 0.707107 -6.34933e-011 0.707107   
     length 0.767373   
     axis -90 45 -4.80359e-014   XYZ
    dof rx rz
    limits (-45.0 45.0)
           (-45.0 45.0)
  end
  begin
     id 24 
     name rclavicle
     direction -0.900919 0.395364 -0.178976   
     length 3.40627  
     axis 0 0 0   XYZ 
    dof ry rz
    limits (-10.0 20.0)
           (-20.0 0.0)
  end
  begin
     id 25 
     name rhumerus
     direction -1 -4.48969e-011 1.03875e-027  
     length 5.08365   
     axis 180 30 90   XYZ
    dof rx ry rz
    limits (-90.0 60.0)
           (-90.0 90.0)
           (-90.0 90.0)
  end
  begin
     id 26 
     name rradius
     direction -1 -4.48951e-011 5.02733e-027   
     length 3.35984   
     axis 180 30 90   XYZ
    dof rx
    limits (-10.0 170.0)
  end
  begin
     id 27 
     name rwrist
     direction -1 -4.49011e-011 9.82828e-027   
     length 1.67992   
     axis -9.31221e-015 -90 -90   XYZ
    dof ry
    limits (-180.0 0.0)
  end
  begin
     id 28
     name rhand
     direction -1 -4.48894e-011 1.96774e-026   
     length 0.820764   
     axis -1.25475e-014 -90 -90   XYZ
    dof rx rz
    limits (-90.0 90.0)
           (-45.0 45.0)
  end
  begin
     id 29
     name rfingers
     direction -1 -4.49095e-011 3.92833e-026   
     length 0.661721   
     axis -2.50945e-014 -90 -90   XYZ
    dof rx
    limits (0.0 90.0)
  end
  begin
     id 30
     name rthumb
     direction -0.707107 -6.34881e-011 0.707107   
     length 0.950103   
     axis -90 -45 4.80359e-014   XYZ
    dof rx rz
    limits (-45.0 45.0)
           (-45.0 45.0)
  end
:hierarchy
  begin
    root lhipjoint rhipjoint lowerback
    lhipjoint lfemur
    lfemur ltibia
    ltibia lfoot
    lfoot ltoes
    rhipjoint rfemur
    rfemur rtibia
    rtibia rfoot
    rfoot rtoes
    lowerback upperback
    upperback thorax
    thorax lowerneck lclavicle rclavicle
    lowerneck upperneck
    upperneck head
    lclavicle lhumerus
    lhumerus lradius
    lradius lwrist
    lwrist lhand lthumb
    lhand lfingers
    rclavicle rhumerus
    rhumerus rradius
    rradius rwrist
    rwrist rhand rthumb
    rhand rfingers
  end

#!OML:ASF I:\golf\golf\golf 2\Subject 1\2002-09-07\Subject1.ASF
:FULLY-SPECIFIED
:DEGREES
16
root -6.66589 17.6835 -0.640407 -97.2882 86.8843 -111.705
lowerback 4.31895 2.62101 -1.58898
upperback 4.12593 3.56654 4.68945
thorax 1.44318 1.75862 5.63436
lowerneck -14.9387 -2.44588 1.15335
upperneck 39.2765 0.00431879 -5.17022
head 16.6837 0.0574634 -2.33123
rclavicle 7.15625e-015 -1.11319e-014
rhumerus -5.54548 -5.58591 -101.569
rradius 21.517
rwrist -41.7393
rhand -12.5521 -6.18019
rfingers 7.12502
rthumb 13.5249 -35.721
lclavicle 7.15625e-015 -1.11319e-014
lhumerus -10.27 -47.6527 110.906
lradius 25.4409
lwrist 35.1574
lhand -15.7108 72.8642
lfingers 7.12502
lthumb -169.521 77.417
rfemur -30.4552 -4.81772 13.1751
rtibia 33.2451
rfoot -11.0208 -7.35308
rtoes -14.3413
lfemur -30.5466 7.73623 -10.5829
ltibia 33.1954
lfoot -13.2862 -3.87264
ltoes -18.1593
17
root -6.66593 17.6839 -0.642187 -97.0855 86.8952 -111.509
lowerback 4.32739 2.61181 -1.59725
upperback 4.12055 3.55398 4.68708
thorax 1.43394 1.75231 5.63645
lowerneck -14.9804 -2.42287 1.16409
upperneck 39.333 0.0414854 -5.16652
head 16.7268 0.0760078 -2.32758
rclavicle -2.5842e-014 -4.21423e-014
rhumerus -5.54455 -5.65157 -101.604
rradius 21.5582
rwrist -41.7731
rhand -12.8889 -6.05311
rfingers 7.12502
rthumb 13.2003 -35.6152
lclavicle -2.5842e-014 -4.21423e-014
lhumerus -10.2807 -47.6227 110.869
lradius 25.48
lwrist 35.1915
lhand -15.7408 72.8886
lfingers 7.12502
lthumb -169.55 77.3911
rfemur -30.4695 -4.94484 13.1979
rtibia 33.239
rfoot -11.1436 -7.16571
rtoes -12.2764
lfemur -30.5572 7.80091 -10.6309
ltibia 33.1987
lfoot -13.3736 -3.79727
ltoes -19.3051
18
root -6.66646 17.6845 -0.644713 -97.093 86.9079 -111.503
lowerback 4.34743 2.60707 -1.60892
upperback 4.12847 3.54771 4.69358
thorax 1.43065 1.74899 5.64945
lowerneck -14.9876 -2.4285 1.16118
upperneck 39.3323 0.0486299 -5.20301
head 16.7288 0.0734017 -2.34227
rclavicle 3.57812e-015 1.74931e-014
rhumerus -5.5731 -5.59026 -101.583
rradius 21.6112
rwrist -41.7979
rhand -12.8295 -6.01465
rfingers 7.12502
rthumb 13.2576 -35.573
lclavicle 3.57812e-015 1.74931e-014
lhumerus -10.2448 -47.4482 110.848
lradius 25.4494
lwrist 35.0186
lhand -15.7066 72.9219
lfingers 7.12502
lthumb -169.517 77.3595
rfemur -30.4479 -4.98622 13.183
rtibia 33.2227
rfoot -11.1377 -6.96174
rtoes -7.70015
lfemur -30.5518 7.77419 -10.6289
ltibia 33.2034
lfoot -13.3241 -3.90394
ltoes -18.6
19
root -6.66613 17.6845 -0.646452 -97.0446 86.8946 -111.451
lowerback 4.32463 2.59701 -1.59095
upperback 4.14702 3.53482 4.69979
thorax 1.46466 1.74218 5.64826
lowerneck -14.9966 -2.42007 1.1774
upperneck 39.3152 0.0687207 -5.2423
head 16.7229 0.0777283 -2.35895
rclavicle -3.18055e-015 -4.45278e-014
rhumerus -5.55814 -5.66865 -101.584
rradius 21.5869
rwrist -41.6272
rhand -12.6338 -6.09406
rfingers 7.12502
rthumb 13.4462 -35.6401
lclavicle -3.18055e-015 -4.45278e-014
lhumerus -10.197 -47.3293 110.798
lradius 25.4315
lwrist 34.8973
lhand -15.6742 73.0515
lfingers 7.12502
lthumb -169.486 77.2315
rfemur -30.4224 -4.92079 13.1676
rtibia 33.2049
rfoot -11.0436 -7.11706
rtoes -12.0259
lfemur -30.5399 7.70807 -10.5717
ltibia 33.2058
lfoot -13.2227 -4.04192
ltoes -17.1046
20
root -6.66575 17.6842 -0.6475 -96.97 86.9122 -111.392
lowerback 4.28647 2.58507 -1.61719
upperback 4.15832 3.51776 4.70488
thorax 1.49783 1.73218 5.67169
lowerneck -15.016 -2.38753 1.16448
upperneck 39.3178 0.116715 -5.22918
head 16.7322 0.096728 -2.34278
rclavicle 3.97569e-016 3.65764e-014
rhumerus -5.59505 -5.45501 -101.579
rradius 21.694
rwrist -41.7856
rhand -12.7558 -6.17331
rfingers 7.12502
rthumb 13.3286 -35.727
lclavicle 3.97569e-016 3.65764e-014
lhumerus -10.154 -47.2322 110.766
lradius 25.4043
lwrist 34.8703
lhand -15.6703 73.0386
lfingers 7.12502
lthumb -169.482 77.2446
rfemur -30.4352 -4.98969 13.1596
rtibia 33.186
rfoot -11.0309 -7.09975
rtoes -13.6386
lfemur -30.5526 7.69887 -10.5954
ltibia 33.2134
lfoot -13.2678 -3.97224
ltoes -17.2685
21
root -6.66605 17.6847 -0.648258 -96.54 86.9466 -110.961
lowerback 4.28832 2.5894 -1.65283
upperback 4.15834 3.52226 4.70085
thorax 1.49459 1.7336 5.68742
lowerneck -15.0041 -2.37731 1.15822
upperneck 39.3275 0.135217 -5.22465
head 16.7356 0.104703 -2.33636
rclavicle -3.73715e-014 1.66979e-014
rhumerus -5.65355 -5.19769 -101.573
rradius 21.7958
rwrist -42.0094
rhand -12.8819 -6.14606
rfingers 7.12502
rthumb 13.207 -35.7077
lclavicle -3.73715e-014 1.66979e-014
lhumerus -10.155 -47.18 110.774
lradius 25.3767
lwrist 34.8815
lhand -15.6891 72.8505
lfingers 7.12502
lthumb -169.5 77.4318
rfemur -30.4396 -5.03994 13.1458
rtibia 33.1708
rfoot -11.0141 -7.07009
rtoes -13.518
lfemur -30.5576 7.76115 -10.6584
ltibia 33.2297
lfoot -13.3554 -3.8876
ltoes -18.075
22
root -6.66673 17.6853 -0.649158 -96.1278 86.941 -110.546
lowerback 4.30975 2.59691 -1.64547
upperback 4.152 3.53286 4.70641
thorax 1.47496 1.73957 5.68727
lowerneck -14.9809 -2.39655 1.14856
upperneck 39.3348 0.112334 -5.22633
head 16.7324 0.0945327 -2.33915
rclavicle 2.22639e-014 2.14687e-014
rhumerus -5.63102 -5.29395 -101.59
rradius 21.7287
rwrist -41.9018
rhand -12.9522 -6.05262
rfingers 7.12502
rthumb 13.1392 -35.6187
lclavicle 2.22639e-014 2.14687e-014
lhumerus -10.1793 -47.165 110.798
lradius 25.3678
lwrist 34.8633
lhand -15.744 72.7628
lfingers 7.12502
lthumb -169.553 77.5168
rfemur -30.4267 -4.96029 13.1418
rtibia 33.1631
rfoot -10.9659 -7.13917
rtoes -13.6809
lfemur -30.5621 7.7927 -10.66
ltibia 33.2457
lfoot -13.3533 -3.90038
ltoes -18.0897
